G04*
G04 #@! TF.GenerationSoftware,Altium Limited,Altium Designer,19.0.5 (141)*
G04*
G04 Layer_Color=8388736*
%FSAX25Y25*%
%MOIN*%
G70*
G01*
G75*
%ADD41R,0.05906X0.01968*%
%ADD42R,0.04540X0.01981*%
%ADD43R,0.04343X0.03162*%
%ADD44R,0.03162X0.04343*%
%ADD45R,0.03950X0.03950*%
%ADD46R,0.03556X0.04737*%
%ADD47R,0.05524X0.02375*%
%ADD48R,0.07099X0.04343*%
%ADD49R,0.03950X0.03950*%
%ADD50R,0.09658X0.04737*%
%ADD51R,0.04737X0.06706*%
%ADD52R,0.04737X0.04540*%
%ADD53R,0.04343X0.05918*%
%ADD54R,0.04540X0.04343*%
%ADD55R,0.01981X0.04540*%
%ADD56R,0.13989X0.13989*%
%ADD57R,0.09068X0.13398*%
%ADD58R,0.09068X0.04343*%
%ADD59R,0.05918X0.04343*%
%ADD60R,0.04343X0.04737*%
%ADD61R,0.04737X0.04737*%
%ADD62R,0.08280X0.06902*%
%ADD63R,0.06312X0.05524*%
%ADD64O,0.09855X0.21666*%
%ADD65C,0.06800*%
%ADD66O,0.06706X0.09461*%
%ADD67R,0.06706X0.09461*%
%ADD68C,0.06706*%
%ADD69R,0.06706X0.06706*%
%ADD70R,0.00800X0.00800*%
%ADD71O,0.07099X0.04737*%
%ADD72R,0.06706X0.06706*%
%ADD73C,0.24422*%
%ADD74C,0.02769*%
D41*
X0579828Y0194291D02*
D03*
Y0196850D02*
D03*
Y0201969D02*
D03*
Y0199409D02*
D03*
Y0191732D02*
D03*
D42*
X0545710Y0207540D02*
D03*
Y0209509D02*
D03*
X0564607Y0215414D02*
D03*
Y0213446D02*
D03*
Y0211477D02*
D03*
Y0209509D02*
D03*
Y0207540D02*
D03*
Y0205572D02*
D03*
Y0203603D02*
D03*
X0545710D02*
D03*
Y0205572D02*
D03*
Y0211477D02*
D03*
Y0213446D02*
D03*
Y0215414D02*
D03*
D43*
X0486500Y0206500D02*
D03*
Y0212405D02*
D03*
X0445225Y0126713D02*
D03*
Y0132618D02*
D03*
X0432740Y0126917D02*
D03*
Y0132823D02*
D03*
X0420254Y0132823D02*
D03*
Y0126917D02*
D03*
X0407768Y0132823D02*
D03*
Y0126917D02*
D03*
X0495000Y0220547D02*
D03*
Y0226453D02*
D03*
X0486500Y0220547D02*
D03*
Y0226453D02*
D03*
X0556500Y0175047D02*
D03*
Y0180953D02*
D03*
X0546000Y0174837D02*
D03*
Y0180742D02*
D03*
X0458500Y0132453D02*
D03*
Y0126547D02*
D03*
X0530000Y0262047D02*
D03*
Y0267953D02*
D03*
X0503500Y0235680D02*
D03*
Y0241585D02*
D03*
D44*
X0512238Y0224155D02*
D03*
X0506332D02*
D03*
X0512238Y0218155D02*
D03*
X0506332D02*
D03*
X0512238Y0212188D02*
D03*
X0506332D02*
D03*
X0512238Y0188217D02*
D03*
X0506332D02*
D03*
X0512238Y0182112D02*
D03*
X0506332D02*
D03*
X0410453Y0172229D02*
D03*
X0404547D02*
D03*
X0410453Y0166220D02*
D03*
X0404547D02*
D03*
X0449569Y0160100D02*
D03*
X0455474D02*
D03*
X0455474Y0166024D02*
D03*
X0449568D02*
D03*
X0455474Y0172024D02*
D03*
X0449568D02*
D03*
X0375547Y0243500D02*
D03*
X0381453D02*
D03*
X0527950Y0235329D02*
D03*
X0533855D02*
D03*
X0533855Y0241595D02*
D03*
X0527950D02*
D03*
X0537954Y0205521D02*
D03*
X0532048D02*
D03*
X0537954Y0211426D02*
D03*
X0532048D02*
D03*
X0532048Y0199500D02*
D03*
X0537954D02*
D03*
X0532048Y0193315D02*
D03*
X0537954D02*
D03*
X0512238Y0206155D02*
D03*
X0506332D02*
D03*
X0512238Y0200000D02*
D03*
X0506332D02*
D03*
X0512238Y0194165D02*
D03*
X0506332D02*
D03*
X0506332Y0176146D02*
D03*
X0512238D02*
D03*
X0487453Y0186900D02*
D03*
X0481547D02*
D03*
X0587047Y0172441D02*
D03*
X0592953D02*
D03*
X0586774Y0218504D02*
D03*
X0592679D02*
D03*
D45*
X0393200Y0172317D02*
D03*
X0399105D02*
D03*
X0393200Y0166935D02*
D03*
X0399105D02*
D03*
X0399447Y0144325D02*
D03*
X0393541D02*
D03*
X0399447Y0138825D02*
D03*
X0393541D02*
D03*
X0554274Y0186221D02*
D03*
X0548369D02*
D03*
X0585350Y0155000D02*
D03*
X0591650D02*
D03*
X0586524Y0227276D02*
D03*
X0592429D02*
D03*
D46*
X0436240Y0160807D02*
D03*
X0432500D02*
D03*
X0428760D02*
D03*
Y0171634D02*
D03*
X0432500D02*
D03*
X0436240D02*
D03*
D47*
X0391300Y0157771D02*
D03*
Y0155212D02*
D03*
Y0152653D02*
D03*
Y0150094D02*
D03*
X0401536D02*
D03*
Y0152653D02*
D03*
Y0155212D02*
D03*
Y0157771D02*
D03*
D48*
X0380700Y0162309D02*
D03*
Y0150891D02*
D03*
D49*
X0451468Y0126122D02*
D03*
Y0132421D02*
D03*
X0438982Y0126221D02*
D03*
Y0132520D02*
D03*
X0426497Y0126221D02*
D03*
Y0132520D02*
D03*
X0414011Y0126221D02*
D03*
Y0132520D02*
D03*
X0536000Y0267953D02*
D03*
Y0262047D02*
D03*
D50*
X0451772Y0187165D02*
D03*
Y0195039D02*
D03*
Y0202913D02*
D03*
Y0210787D02*
D03*
Y0218661D02*
D03*
Y0226535D02*
D03*
Y0234409D02*
D03*
Y0242284D02*
D03*
X0391732D02*
D03*
Y0234409D02*
D03*
Y0226535D02*
D03*
Y0218661D02*
D03*
Y0210787D02*
D03*
Y0202913D02*
D03*
Y0195039D02*
D03*
Y0187165D02*
D03*
D51*
X0402067Y0181260D02*
D03*
X0409941D02*
D03*
X0417815D02*
D03*
X0425689D02*
D03*
X0433563D02*
D03*
X0441437D02*
D03*
D52*
X0519994Y0234892D02*
D03*
X0519994Y0242372D02*
D03*
X0511136Y0238632D02*
D03*
X0541136Y0242372D02*
D03*
X0541136Y0234892D02*
D03*
X0549994Y0238632D02*
D03*
D53*
X0555161Y0193039D02*
D03*
X0547681D02*
D03*
D54*
X0564607Y0181110D02*
D03*
Y0194890D02*
D03*
D55*
X0549253Y0218957D02*
D03*
X0551221D02*
D03*
X0553190D02*
D03*
X0555158D02*
D03*
X0557127D02*
D03*
X0559095D02*
D03*
X0561064D02*
D03*
Y0200060D02*
D03*
X0559095D02*
D03*
X0557127D02*
D03*
X0555158D02*
D03*
X0553190D02*
D03*
X0551221D02*
D03*
X0549253D02*
D03*
D56*
X0555158Y0209509D02*
D03*
D57*
X0543265Y0157794D02*
D03*
D58*
X0520825Y0148739D02*
D03*
Y0157794D02*
D03*
Y0166849D02*
D03*
D59*
X0510878Y0168969D02*
D03*
Y0161489D02*
D03*
Y0147380D02*
D03*
Y0154861D02*
D03*
D60*
X0542858Y0132799D02*
D03*
X0559000D02*
D03*
Y0126500D02*
D03*
X0542858D02*
D03*
Y0267717D02*
D03*
X0559000D02*
D03*
Y0261417D02*
D03*
X0542858D02*
D03*
D61*
X0592543Y0163692D02*
D03*
X0585457D02*
D03*
D62*
X0591048Y0200886D02*
D03*
Y0192815D02*
D03*
D63*
X0580713Y0209449D02*
D03*
Y0184252D02*
D03*
D64*
X0563386Y0154291D02*
D03*
Y0239409D02*
D03*
X0469291D02*
D03*
Y0154291D02*
D03*
D65*
X0468504Y0181850D02*
D03*
Y0191850D02*
D03*
Y0201850D02*
D03*
Y0211850D02*
D03*
Y0171850D02*
D03*
Y0221850D02*
D03*
D66*
X0438500Y0149500D02*
D03*
X0428500D02*
D03*
D67*
X0418500D02*
D03*
D68*
X0471380Y0263779D02*
D03*
Y0129921D02*
D03*
X0366142Y0226220D02*
D03*
Y0216220D02*
D03*
Y0206221D02*
D03*
Y0196221D02*
D03*
Y0156220D02*
D03*
Y0166220D02*
D03*
D69*
X0481380Y0263779D02*
D03*
Y0129921D02*
D03*
D70*
X0581794Y0204811D02*
D03*
Y0188866D02*
D03*
D71*
X0590259Y0208169D02*
D03*
Y0185531D02*
D03*
D72*
X0366142Y0236221D02*
D03*
Y0186221D02*
D03*
Y0176221D02*
D03*
D73*
X0582677Y0259842D02*
D03*
Y0133858D02*
D03*
X0370079Y0259842D02*
D03*
D74*
X0557658Y0207009D02*
D03*
X0555158Y0209509D02*
D03*
X0552658Y0207009D02*
D03*
X0557658Y0212009D02*
D03*
X0552658D02*
D03*
M02*
