M48
;Layer_Color=9474304
;FILE_FORMAT=2:5
INCH
;TYPE=PLATED
T1F00S00C0.01181
T3F00S00C0.03500
T4F00S00C0.03543
T6F00S00C0.11811
;TYPE=NON_PLATED
T7F00S00C0.02756
%
T01
X0375590Y0120472
X0382677
X0389763
X0396850
X0400393Y0127559
X0403011Y0129489
X0403937Y0134646
X0399500Y0134000
X0396850Y0134646
X0388000Y0138500
X0386220Y0141732
Y0127559
X0407768Y0138500
X0405500Y0146000
X0421653Y0141732
X0428740
X0446500Y0145000
X0453543Y0148819
X0460630
X0457086Y0155905
X0449600Y0154500
X0442913Y0155905
X0421653
X0372047
X0467716Y0134646
X0464500Y0129469
X0474803Y0134646
X0488976
X0496063
X0503149
X0510236
X0513779Y0127559
X0520866
X0527952
X0535039
X0549212
X0545669Y0120472
X0552756
X0559842
X0566929
X0574015
X0570472Y0127559
X0563385
X0566929Y0134646
X0570472Y0141732
X0563385
X0552756Y0134646
X0534500Y0148219
X0529000
X0531997Y0152653
X0504000Y0147500
X0500000Y0144500
X0496063Y0148819
X0488976
X0481889
X0485433Y0155905
X0492519
X0499606
X0478346
X0570472
X0574015Y0148819
X0581102
X0588189
X0593000Y0148000
X0588189Y0120472
X0582283Y0181496
X0578828
X0572165Y0186221
X0574709Y0194187
Y0196955
X0575000Y0207000
X0578828Y0211811
X0582283Y0211850
X0570472Y0212598
X0566929Y0219685
X0574015
X0577559Y0226771
X0570472
X0563385
X0574015Y0233858
X0581102
X0588189
X0591732Y0240945
X0584645
X0577559
X0570472
X0574015Y0248031
X0563385Y0255118
X0566929Y0262205
X0570472Y0269291
X0563385
X0550500Y0265500
X0552756Y0262205
X0545669Y0248031
X0538582
X0531496
X0524409
X0517322
X0520866Y0255118
X0527952
X0535039
X0524409Y0262205
X0513779Y0269291
X0506693
X0499606
X0492519
X0485433
X0478346
X0471260
X0480000Y0252500
X0478346Y0240945
X0485433
X0481889Y0233858
X0488976
Y0248031
X0496063
X0503149
X0498000Y0241500
X0499500Y0230000
X0510236Y0233858
X0516000Y0238500
X0516500Y0212500
Y0207000
X0527414Y0207212
Y0209980
X0531496Y0219685
X0538582
X0545669
X0544000Y0222500
X0552658Y0212009
X0555158Y0209509
X0557658Y0207009
X0552658
X0557658Y0212009
X0559500Y0192815
X0542126Y0198425
X0540500Y0186221
X0538582Y0177165
X0531496
X0524409
X0523500Y0181850
X0517322Y0177165
X0520000Y0174000
X0529000Y0166849
X0534500Y0167024
X0531997Y0162309
X0534500Y0157794
X0529000
X0553694Y0165194
X0499606Y0170079
X0492519
X0485433
X0478346
X0474803Y0177165
X0481889
X0488976
X0496063
X0503149
Y0191339
X0496063
X0493400Y0186900
X0499606Y0198425
X0517322Y0191339
X0517500Y0188217
X0496063Y0162992
X0488976
X0481889
X0474803Y0219685
X0481000Y0227000
X0492500Y0255000
X0556299Y0240945
X0460630Y0262205
X0464173Y0269291
X0438252Y0242284
Y0238500
X0443500Y0234500
X0424500Y0234409
X0425410Y0218500
X0417815Y0218642
X0411023Y0219685
X0403011Y0221500
X0400393Y0212598
X0401000Y0203000
Y0195000
X0418976Y0194200
X0418110Y0191339
X0425197
X0432283
X0435826Y0198425
X0428740
X0421653
X0422000Y0186900
X0445000Y0190500
X0448500Y0179000
X0464173Y0184252
X0460630Y0162992
X0443625Y0161625
X0424500Y0161500
X0425000Y0157100
X0412500Y0158000
X0407000Y0157794
X0387500Y0172615
X0384000Y0187165
X0375590Y0191339
X0382677Y0205512
Y0219685
X0361417
Y0248031
X0372047Y0240945
X0382677Y0248031
X0408711Y0208169
X0414567Y0212598
X0429500Y0207009
X0433000Y0210500
X0432000Y0222500
X0438000Y0218957
T03
X0468504Y0171850
Y0181850
Y0191850
Y0201850
Y0211850
Y0221850
T04
X0366142Y0156220
X0418500Y0149500
X0428500
X0438500
X0471380Y0129921
X0481380
Y0263779
X0471380
X0366142Y0236221
Y0226220
Y0216220
Y0206221
Y0196221
Y0186221
Y0176221
Y0166220
T06
X0370079Y0133858
X0582677
Y0259842
X0370079
T07
X0581794Y0188866
Y0204811
M30
